<svg width="80" height="80" viewBox="0 0 80 80" fill="none" xmlns="http://www.w3.org/2000/svg">
<path d="M0 12C0 5.37258 5.37258 0 12 0H68C74.6274 0 80 5.37258 80 12V68C80 74.6274 74.6274 80 68 80H12C5.37258 80 0 74.6274 0 68V12Z" fill="#EDFCFB"/>
<path d="M50.6543 23.5C52.2394 23.5803 53.5 24.891 53.5 26.4961V53.4961C53.5 55.1012 52.2394 56.4119 50.6543 56.4922L50.5 56.4961H29.5C27.8949 56.4961 26.5842 55.2355 26.5039 53.6504L26.5 53.4961V26.4961C26.5 24.8392 27.8431 23.4961 29.5 23.4961H50.5L50.6543 23.5ZM29.5 25.4961C28.9477 25.4961 28.5 25.9438 28.5 26.4961V53.4961C28.5 54.0484 28.9477 54.4961 29.5 54.4961H50.5C51.0523 54.4961 51.5 54.0484 51.5 53.4961V26.4961C51.5 25.9438 51.0523 25.4961 50.5 25.4961H29.5ZM40.5 44.4961C41.0523 44.4961 41.5 44.9438 41.5 45.4961C41.5 46.0484 41.0523 46.4961 40.5 46.4961H34.5C33.9477 46.4961 33.5 46.0484 33.5 45.4961C33.5 44.9438 33.9477 44.4961 34.5 44.4961H40.5ZM45.5 37.4961C46.0523 37.4961 46.5 37.9438 46.5 38.4961C46.5 39.0484 46.0523 39.4961 45.5 39.4961H34.5C33.9477 39.4961 33.5 39.0484 33.5 38.4961C33.5 37.9438 33.9477 37.4961 34.5 37.4961H45.5ZM45.5 30.4961C46.0523 30.4961 46.5 30.9438 46.5 31.4961C46.5 32.0484 46.0523 32.4961 45.5 32.4961H34.5C33.9477 32.4961 33.5 32.0484 33.5 31.4961C33.5 30.9438 33.9477 30.4961 34.5 30.4961H45.5Z" fill="#009F9C" stroke="#009F9C" stroke-width="0.8" stroke-linecap="round"/>
</svg>
