<svg width="11" height="13" viewBox="0 0 11 13" fill="none" xmlns="http://www.w3.org/2000/svg">
<path d="M6.75 11.4647L8 9.80813L9.76018 7.4755C10.2403 6.83925 10.5 6.06389 10.5 5.26683C10.5 2.63418 8.36582 0.5 5.73317 0.5H5.26683C2.63418 0.5 0.5 2.63418 0.5 5.26683C0.5 6.06389 0.759716 6.83925 1.23982 7.4755L3 9.80813L4.25 11.4647L4.875 12.2929L5.03125 12.5" stroke="#333333" stroke-linecap="round"/>
<path d="M5.49805 3.40625C6.33413 3.40625 7.01243 4.0839 7.0127 4.91992C7.0127 5.75617 6.33429 6.43457 5.49805 6.43457C4.66202 6.43431 3.98438 5.756 3.98438 4.91992C3.98464 4.08406 4.66219 3.40651 5.49805 3.40625Z" stroke="#333333"/>
</svg>
